<svg width="180" height="180" viewBox="0 0 180 180" fill="none" xmlns="http://www.w3.org/2000/svg">
<path d="M90 90L90 135C114.8 135 135 155.1 135 180L180 180C180 130.3 139.7 90 90 90Z" fill="white"/>
<path d="M90 90L90 135C65.2 135 45 155.1 45 180L2.46589e-09 180C1.10417e-09 130.3 40.3 90 90 90Z" fill="white"/>
<path d="M90 0L90 45C114.8 45 135 65.1 135 90L180 90C180 40.3 139.7 -1.36172e-09 90 0Z" fill="white"/>
<path d="M90 -2.46589e-09L90 45C65.2 45 45 65.1 45 90L2.46589e-09 90C1.10417e-09 40.3 40.3 -1.10417e-09 90 -2.46589e-09Z" fill="white"/>
</svg>
