<svg width="180" height="180" viewBox="0 0 180 180" fill="none" xmlns="http://www.w3.org/2000/svg">
<path d="M90 -2.46589e-09L90 45C65.2 45 45 65.1 45 90L2.46589e-09 90C1.10417e-09 40.3 40.3 -1.10417e-09 90 -2.46589e-09Z" fill="white"/>
<path d="M180 90L135 90C135 65.2 114.9 45 90 45L90 0C139.7 -1.36172e-09 180 40.3 180 90Z" fill="white"/>
<path d="M2.46589e-09 180L1.23294e-09 135C24.8 135 45 114.9 45 90L90 90C90 139.7 49.7 180 2.46589e-09 180Z" fill="white"/>
<path d="M90 90L135 90C135 114.8 155.1 135 180 135L180 180C130.3 180 90 139.7 90 90Z" fill="white"/>
</svg>
