<svg width="180" height="180" viewBox="0 0 180 180" fill="none" xmlns="http://www.w3.org/2000/svg">
<path d="M180 180L180 135C155.2 135 135 114.9 135 90L90 90C90 139.7 130.3 180 180 180Z" fill="white"/>
<path d="M90 180L45 180C45 155.2 24.9 135 1.23294e-09 135L0 90C49.7 90 90 130.3 90 180Z" fill="white"/>
<path d="M180 90L180 45C155.2 45 135 24.9 135 -1.23294e-09L90 0C90 49.7 130.3 90 180 90Z" fill="white"/>
<path d="M90 90L45 90C45 65.2 24.9 45 1.23294e-09 45L0 0C49.7 -1.36172e-09 90 40.3 90 90Z" fill="white"/>
</svg>
